<svg xmlns="http://www.w3.org/2000/svg" width="254.561" height="254.558" viewBox="0 0 254.561 254.558">
  <g id="Grupo_39" data-name="Grupo 39" transform="translate(-832.999 -103.001)">
    <g id="Exclusión_3" data-name="Exclusión 3" transform="translate(4813 2469)" fill="#1c2a8a">
      <path d="M -3852.7197265625 -2113.56298828125 L -3886.377685546875 -2147.219970703125 L -3819.062744140625 -2147.219970703125 L -3852.7197265625 -2113.56298828125 Z M -3764.2216796875 -2150.219970703125 L -3811.820068359375 -2150.219970703125 L -3764.2216796875 -2197.81787109375 L -3764.2216796875 -2150.219970703125 Z M -3893.6201171875 -2150.219970703125 L -3941.2197265625 -2150.219970703125 L -3941.2197265625 -2197.817138671875 L -3893.6201171875 -2150.219970703125 Z M -3761.2216796875 -2205.060546875 L -3761.2216796875 -2272.3798828125 L -3727.561767578125 -2238.720458984375 L -3761.2216796875 -2205.060546875 Z M -3944.2197265625 -2205.0615234375 L -3977.879638671875 -2238.720458984375 L -3944.2197265625 -2272.37939453125 L -3944.2197265625 -2205.0615234375 Z M -3941.2197265625 -2279.6220703125 L -3941.2197265625 -2327.220458984375 L -3893.620361328125 -2327.220458984375 L -3941.2197265625 -2279.6220703125 Z M -3764.2216796875 -2279.6220703125 L -3811.820068359375 -2327.219970703125 L -3764.2216796875 -2327.220458984375 L -3764.2216796875 -2279.6220703125 Z M -3819.062255859375 -2330.220458984375 L -3886.377685546875 -2330.220458984375 L -3852.7197265625 -2363.8779296875 L -3819.062255859375 -2330.220458984375 Z" stroke="none"/>
      <path d="M -3852.7197265625 -2115.684326171875 L -3822.68408203125 -2145.719970703125 L -3882.75634765625 -2145.719970703125 L -3852.7197265625 -2115.684326171875 M -3765.7216796875 -2151.719970703125 L -3765.7216796875 -2194.196533203125 L -3808.19873046875 -2151.719970703125 L -3765.7216796875 -2151.719970703125 M -3897.241455078125 -2151.719970703125 L -3939.7197265625 -2194.19580078125 L -3939.7197265625 -2151.719970703125 L -3897.241455078125 -2151.719970703125 M -3759.7216796875 -2208.681884765625 L -3729.68310546875 -2238.720458984375 L -3759.7216796875 -2268.758544921875 L -3759.7216796875 -2208.681884765625 M -3945.7197265625 -2208.6826171875 L -3945.7197265625 -2268.75830078125 L -3975.75830078125 -2238.720458984375 L -3945.7197265625 -2208.6826171875 M -3939.7197265625 -2283.2431640625 L -3897.24169921875 -2325.720458984375 L -3939.7197265625 -2325.720458984375 L -3939.7197265625 -2283.2431640625 M -3765.7216796875 -2283.243408203125 L -3765.7216796875 -2325.720458984375 L -3808.19873046875 -2325.719970703125 L -3765.7216796875 -2283.243408203125 M -3822.68359375 -2331.720458984375 L -3852.7197265625 -2361.756591796875 L -3882.75634765625 -2331.720458984375 L -3822.68359375 -2331.720458984375 M -3852.7197265625 -2111.441650390625 L -3889.9990234375 -2148.719970703125 L -3815.44140625 -2148.719970703125 L -3852.7197265625 -2111.441650390625 Z M -3762.7216796875 -2148.718994140625 L -3762.7216796875 -2148.719970703125 L -3815.44140625 -2148.719970703125 L -3762.7216796875 -2201.439208984375 L -3762.7216796875 -2148.718994140625 Z M -3889.9990234375 -2148.719970703125 L -3942.7197265625 -2148.719970703125 L -3942.7197265625 -2201.438232421875 L -3889.9990234375 -2148.719970703125 Z M -3762.7216796875 -2201.439208984375 L -3762.7216796875 -2276.001220703125 L -3725.4404296875 -2238.720458984375 L -3762.7216796875 -2201.439208984375 Z M -3942.7197265625 -2201.440185546875 L -3942.7216796875 -2201.442138671875 L -3980.0009765625 -2238.720458984375 L -3942.7197265625 -2276.000732421875 L -3942.7197265625 -2201.440185546875 Z M -3942.7197265625 -2276.000732421875 L -3942.7197265625 -2328.720458984375 L -3889.9990234375 -2328.720458984375 L -3942.7197265625 -2276.000732421875 Z M -3762.7216796875 -2276.001220703125 L -3762.7236328125 -2276.002685546875 L -3815.44140625 -2328.719970703125 L -3762.7216796875 -2328.720458984375 L -3762.7216796875 -2276.001220703125 Z M -3815.44140625 -2328.720458984375 L -3889.9990234375 -2328.720458984375 L -3852.7197265625 -2365.999267578125 L -3815.44140625 -2328.720458984375 Z" stroke="none" fill="#1c2a8a"/>
    </g>
  </g>
</svg>
