<svg xmlns="http://www.w3.org/2000/svg" xmlns:xlink="http://www.w3.org/1999/xlink" width="106" height="60" viewBox="0 0 106 60">
  <defs>
    <clipPath id="clip-path">
      <rect id="Rect치ngulo_1" data-name="Rect치ngulo 1" width="106" height="60" transform="translate(-0.468)" opacity="0.4"/>
    </clipPath>
    <clipPath id="clip-path-2">
      <rect id="Rect치ngulo_3" data-name="Rect치ngulo 3" width="105.563" height="39.741" fill="#fff"/>
    </clipPath>
  </defs>
  <g id="Enmascarar_grupo_1" data-name="Enmascarar grupo 1" transform="translate(0.468)" clip-path="url(#clip-path)">
    <g id="lolLogo" transform="translate(-0.031 9.819)" clip-path="url(#clip-path-2)">
      <path id="Trazado_1" data-name="Trazado 1" d="M1052.551,390.088V408.07h-3.978l-8.593-11.685V408.07h-3.811v-16.3l-.871-1.681h4.927l8.515,11.847V390.088Z" transform="translate(-978.376 -368.64)" fill="#c28f2c"/>
      <path id="Trazado_2" data-name="Trazado 2" d="M465.059,402.992a9.523,9.523,0,0,0,3.636-.661,8.738,8.738,0,0,0,2.882-1.857,8.571,8.571,0,0,0,1.9-2.81,8.777,8.777,0,0,0,.642-2.466,18.107,18.107,0,0,0,.033-2.51H465.1l-1.612,3.242h6.463a4.265,4.265,0,0,1-1.691,2.5,5.18,5.18,0,0,1-3.152.946,5.44,5.44,0,0,1-2.2-.46,5.682,5.682,0,0,1-1.776-1.225,5.61,5.61,0,0,1-1.184-1.813,5.9,5.9,0,0,1,.023-4.435,5.565,5.565,0,0,1,2.98-3,5.5,5.5,0,0,1,2.193-.425,5.692,5.692,0,0,1,2.829.706,4.748,4.748,0,0,1,1.9,2.008l3.576-1.674a8.14,8.14,0,0,0-3.3-3.425,9.983,9.983,0,0,0-4.964-1.255,9.588,9.588,0,0,0-8.866,5.646,8.708,8.708,0,0,0-.779,3.61,8.844,8.844,0,0,0,.729,3.618,9.416,9.416,0,0,0,5.036,4.984A9.647,9.647,0,0,0,465.059,402.992Z" transform="translate(-430.491 -363.252)" fill="#c28f2c"/>
      <path id="Trazado_3" data-name="Trazado 3" d="M4.852,390.067H0l.916,1.859v14.268L0,408.052H11.135l1.01-3.519H4.852Z" transform="translate(0 -368.621)" fill="#c28f2c"/>
      <path id="Trazado_4" data-name="Trazado 4" d="M245.338,408.052h10.853v-3.517h-6.9v-3.946h5.337l.967-3.381h-6.3V393.57h6.9v-3.5H245.338Z" transform="translate(-231.849 -368.621)" fill="#c28f2c"/>
      <path id="Trazado_5" data-name="Trazado 5" d="M819.232,408.052h10.853v-3.517h-6.9v-3.946h5.338l.965-3.381h-6.3V393.57h6.9v-3.5H819.232Z" transform="translate(-774.19 -368.621)" fill="#c28f2c"/>
      <path id="Trazado_6" data-name="Trazado 6" d="M782.012,18.586a9.52,9.52,0,0,0,3.636-.661,8.735,8.735,0,0,0,2.882-1.857,8.57,8.57,0,0,0,1.9-2.81,8.778,8.778,0,0,0,.641-2.466,18.088,18.088,0,0,0,.033-2.51H782.05l-1.612,3.241H786.9a4.265,4.265,0,0,1-1.691,2.5,5.182,5.182,0,0,1-3.152.946,5.442,5.442,0,0,1-2.2-.46,5.689,5.689,0,0,1-1.776-1.225,5.613,5.613,0,0,1-1.184-1.813,5.9,5.9,0,0,1,.023-4.435,5.564,5.564,0,0,1,2.98-3,5.5,5.5,0,0,1,2.193-.425,5.693,5.693,0,0,1,2.829.706,4.747,4.747,0,0,1,1.9,2.008L790.4,4.658a8.14,8.14,0,0,0-3.3-3.425,9.983,9.983,0,0,0-4.964-1.255,9.588,9.588,0,0,0-8.866,5.646,8.705,8.705,0,0,0-.779,3.61,8.841,8.841,0,0,0,.729,3.618,9.533,9.533,0,0,0,8.794,5.734Z" transform="translate(-730.018 0.021)" fill="#c28f2c"/>
      <path id="Trazado_7" data-name="Trazado 7" d="M4.852,5.7H0L.916,7.562V21.829L0,23.687H11.135l1.01-3.52H4.852Z" transform="translate(0 -5.389)" fill="#c28f2c"/>
      <path id="Trazado_8" data-name="Trazado 8" d="M245.338,23.687h10.853V20.169h-6.9V16.224h5.337l.967-3.381h-6.3V9.205h6.9V5.7H245.338Z" transform="translate(-231.849 -5.389)" fill="#c28f2c"/>
      <path id="Trazado_9" data-name="Trazado 9" d="M1435.907,23.687h10.852V20.169h-6.9V16.224h5.337l.965-3.381h-6.3V9.205h6.9V5.7h-10.852Z" transform="translate(-1356.96 -5.389)" fill="#c28f2c"/>
      <path id="Trazado_10" data-name="Trazado 10" d="M476.557,5.7h-5.612L472.131,8,465.65,23.689h4.038l1.376-3.509h7.3l1.415,3.509h4.116Zm-4.145,11.038,2.37-6.043,2.277,6.043Z" transform="translate(-440.048 -5.389)" fill="#c28f2c"/>
      <path id="Trazado_11" data-name="Trazado 11" d="M1820.824,95.658v8.088h2.033v-2.734h2.1l.508-1.779h-2.607V97.49h2.981V95.658Z" transform="translate(-1720.714 -90.399)" fill="#c28f2c"/>
      <path id="Trazado_12" data-name="Trazado 12" d="M1655.6,92.735a4.206,4.206,0,1,0,4.294,4.205A4.255,4.255,0,0,0,1655.6,92.735Zm0,6.459a2.254,2.254,0,1,1,2.3-2.254A2.279,2.279,0,0,1,1655.6,99.194Z" transform="translate(-1560.512 -87.637)" fill="#c28f2c"/>
      <path id="Trazado_13" data-name="Trazado 13" d="M1143.54,24a8.576,8.576,0,0,1-3.1-.526,6.327,6.327,0,0,1-2.31-1.5,6.644,6.644,0,0,1-1.457-2.361,8.829,8.829,0,0,1-.512-3.079V5.7h3.991V16.326a4.391,4.391,0,0,0,.866,2.875,3.546,3.546,0,0,0,5.042,0,4.391,4.391,0,0,0,.866-2.875V5.7h3.991v10.83a8.834,8.834,0,0,1-.512,3.079,6.671,6.671,0,0,1-1.457,2.362,6.347,6.347,0,0,1-2.311,1.5A8.612,8.612,0,0,1,1143.54,24Z" transform="translate(-1073.694 -5.389)" fill="#c28f2c"/>
      <path id="Trazado_14" data-name="Trazado 14" d="M1678.416,392l-2.485-.467c-1.118-.21-1.733-.823-1.733-1.726,0-1.231,1.292-1.967,2.54-1.967a2.9,2.9,0,0,1,2.977,2.17l3.424-1.634c-.505-1.467-2.017-4.01-6.425-4.01-3.554,0-6.447,2.552-6.447,5.687,0,2.659,1.82,4.609,4.866,5.216l2.486.491c1.228.24,1.961.922,1.961,1.824,0,1.167-1.012,1.876-2.64,1.893a3.841,3.841,0,0,1-3.818-2.828l-3.29,1.794c.755,2.4,3.08,4.534,7.084,4.534a7.016,7.016,0,0,0,4.936-1.75,5.308,5.308,0,0,0,1.737-3.863C1683.585,394.656,1681.6,392.6,1678.416,392Z" transform="translate(-1578.022 -363.231)" fill="#c28f2c"/>
      <path id="Trazado_15" data-name="Trazado 15" d="M1395.29,395.5a8.886,8.886,0,0,0-2-2.845,9.475,9.475,0,0,0-2.974-1.9,11.461,11.461,0,0,0-3.617-.75h-6.223v17.984h6.212a9.559,9.559,0,0,0,6.595-2.578,8.846,8.846,0,0,0,2.007-2.842,8.859,8.859,0,0,0,0-7.07Zm-3.726,5.633a5.266,5.266,0,0,1-2.859,2.829,5.4,5.4,0,0,1-2.123.421h-2.176V393.68h2.183a5.315,5.315,0,0,1,4.98,3.269,5.43,5.43,0,0,1,0,4.188Z" transform="translate(-1304.574 -368.568)" fill="#c28f2c"/>
    </g>
  </g>
</svg>
