<svg xmlns="http://www.w3.org/2000/svg" width="96" height="96.001" viewBox="0 0 96 96.001">
  <g id="Sustracción_2" data-name="Sustracción 2" transform="translate(3942.72 2328.721)" fill="none">
    <path d="M-3846.721-2232.72h-28.118l28.118-28.118v28.118Zm-67.882,0h-28.117v-28.117l28.117,28.116Zm67.882-67.882h0l-28.117-28.118h28.118v28.119Zm-96,0v-28.118h28.117l-28.117,28.117Z" stroke="none"/>
    <path d="M -3849.720703125 -2235.72021484375 L -3849.720703125 -2253.595458984375 L -3867.59619140625 -2235.72021484375 L -3849.720703125 -2235.72021484375 M -3921.84521484375 -2235.72021484375 L -3939.72021484375 -2253.594970703125 L -3939.72021484375 -2235.72021484375 L -3921.84521484375 -2235.72021484375 M -3849.720703125 -2307.84521484375 L -3849.720703125 -2325.72119140625 L -3867.59619140625 -2325.72119140625 L -3849.720703125 -2307.84521484375 M -3939.72021484375 -2307.846435546875 L -3921.845703125 -2325.72119140625 L -3939.72021484375 -2325.72119140625 L -3939.72021484375 -2307.846435546875 M -3846.720703125 -2232.7197265625 L -3846.720703125 -2232.72021484375 L -3874.8388671875 -2232.72021484375 L -3846.720703125 -2260.838134765625 L -3846.720703125 -2232.7197265625 Z M -3914.60302734375 -2232.72021484375 L -3942.72021484375 -2232.72021484375 L -3942.72021484375 -2260.837646484375 L -3914.60302734375 -2232.72021484375 Z M -3846.720703125 -2300.6025390625 L -3874.8388671875 -2328.72119140625 L -3846.720703125 -2328.72119140625 L -3846.720703125 -2300.6025390625 Z M -3942.72021484375 -2300.60302734375 L -3942.72021484375 -2328.72119140625 L -3914.60302734375 -2328.72119140625 L -3942.72021484375 -2300.60302734375 Z" stroke="none" fill="#1c2a8a"/>
  </g>
</svg>
